<mxfile host="app.diagrams.net" modified="2023-11-11T23:12:28.123Z" agent="Mozilla/5.0 (Windows NT 10.0; Win64; x64) AppleWebKit/537.36 (KHTML, like Gecko) Chrome/119.0.0.0 Safari/537.36" etag="ZlqNkhcTetuyLmFCEQND" version="22.1.0" type="device">
  <diagram id="C5RBs43oDa-KdzZeNtuy" name="Page-1">
    <mxGraphModel dx="2041" dy="606" grid="0" gridSize="10" guides="1" tooltips="1" connect="1" arrows="1" fold="1" page="1" pageScale="1" pageWidth="827" pageHeight="1169" background="none" math="0" shadow="0">
      <root>
        <mxCell id="WIyWlLk6GJQsqaUBKTNV-0" />
        <mxCell id="WIyWlLk6GJQsqaUBKTNV-1" parent="WIyWlLk6GJQsqaUBKTNV-0" />
        <mxCell id="gMZlVJIhhhXlPBFiC0Z1-0" style="edgeStyle=orthogonalEdgeStyle;rounded=0;orthogonalLoop=1;jettySize=auto;html=1;entryX=0.5;entryY=0;entryDx=0;entryDy=0;" edge="1" parent="WIyWlLk6GJQsqaUBKTNV-1" source="ByL_Ba1hzFAfyO3tFBdU-0" target="ByL_Ba1hzFAfyO3tFBdU-4">
          <mxGeometry relative="1" as="geometry" />
        </mxCell>
        <mxCell id="gMZlVJIhhhXlPBFiC0Z1-1" style="edgeStyle=orthogonalEdgeStyle;rounded=0;orthogonalLoop=1;jettySize=auto;html=1;entryX=1;entryY=0.5;entryDx=0;entryDy=0;" edge="1" parent="WIyWlLk6GJQsqaUBKTNV-1" source="ByL_Ba1hzFAfyO3tFBdU-0" target="ByL_Ba1hzFAfyO3tFBdU-1">
          <mxGeometry relative="1" as="geometry">
            <Array as="points">
              <mxPoint x="170" y="413" />
            </Array>
          </mxGeometry>
        </mxCell>
        <mxCell id="gMZlVJIhhhXlPBFiC0Z1-2" style="edgeStyle=orthogonalEdgeStyle;rounded=0;orthogonalLoop=1;jettySize=auto;html=1;entryX=0.5;entryY=1;entryDx=0;entryDy=0;" edge="1" parent="WIyWlLk6GJQsqaUBKTNV-1" source="ByL_Ba1hzFAfyO3tFBdU-0" target="ByL_Ba1hzFAfyO3tFBdU-6">
          <mxGeometry relative="1" as="geometry" />
        </mxCell>
        <mxCell id="gMZlVJIhhhXlPBFiC0Z1-3" style="edgeStyle=orthogonalEdgeStyle;rounded=0;orthogonalLoop=1;jettySize=auto;html=1;entryX=0.5;entryY=1;entryDx=0;entryDy=0;" edge="1" parent="WIyWlLk6GJQsqaUBKTNV-1" source="ByL_Ba1hzFAfyO3tFBdU-0" target="ByL_Ba1hzFAfyO3tFBdU-2">
          <mxGeometry relative="1" as="geometry" />
        </mxCell>
        <mxCell id="ByL_Ba1hzFAfyO3tFBdU-0" value="&lt;font style=&quot;&quot;&gt;&lt;b style=&quot;&quot;&gt;&lt;font style=&quot;font-size: 20px;&quot;&gt;Hazards&lt;/font&gt;&lt;/b&gt;&lt;br&gt;&lt;i style=&quot;font-size: 14px;&quot;&gt;&lt;font color=&quot;#787878&quot;&gt;hazards&lt;/font&gt;&lt;/i&gt;&lt;br&gt;&lt;/font&gt;" style="rounded=0;whiteSpace=wrap;html=1;" parent="WIyWlLk6GJQsqaUBKTNV-1" vertex="1">
          <mxGeometry x="357" y="352" width="120" height="80" as="geometry" />
        </mxCell>
        <mxCell id="gMZlVJIhhhXlPBFiC0Z1-16" style="edgeStyle=orthogonalEdgeStyle;rounded=0;orthogonalLoop=1;jettySize=auto;html=1;entryX=0;entryY=0.5;entryDx=0;entryDy=0;strokeColor=#8f8f8f;dashed=1;dashPattern=8 8;" edge="1" parent="WIyWlLk6GJQsqaUBKTNV-1" source="ByL_Ba1hzFAfyO3tFBdU-1" target="ByL_Ba1hzFAfyO3tFBdU-18">
          <mxGeometry relative="1" as="geometry">
            <Array as="points">
              <mxPoint x="64" y="465" />
              <mxPoint x="368" y="465" />
              <mxPoint x="368" y="596" />
              <mxPoint x="774" y="596" />
              <mxPoint x="774" y="562" />
            </Array>
          </mxGeometry>
        </mxCell>
        <mxCell id="ByL_Ba1hzFAfyO3tFBdU-1" value="&lt;font style=&quot;&quot;&gt;&lt;b style=&quot;&quot;&gt;&lt;font style=&quot;font-size: 18px;&quot;&gt;Conversion&lt;/font&gt;&lt;/b&gt;&lt;br&gt;&lt;i style=&quot;&quot;&gt;&lt;font style=&quot;&quot; color=&quot;#787878&quot;&gt;&lt;span style=&quot;font-size: 14px;&quot;&gt;.&lt;/span&gt;&lt;font style=&quot;font-size: 12px;&quot;&gt;conversion&lt;/font&gt;&lt;/font&gt;&lt;/i&gt;&lt;br&gt;&lt;/font&gt;" style="rounded=0;whiteSpace=wrap;html=1;fillColor=#dedede;fontColor=#333333;strokeColor=none;" parent="WIyWlLk6GJQsqaUBKTNV-1" vertex="1">
          <mxGeometry x="4" y="388" width="120" height="50" as="geometry" />
        </mxCell>
        <mxCell id="gMZlVJIhhhXlPBFiC0Z1-33" style="edgeStyle=orthogonalEdgeStyle;rounded=0;orthogonalLoop=1;jettySize=auto;html=1;entryX=0;entryY=0.5;entryDx=0;entryDy=0;fillColor=#d5e8d4;strokeColor=#82b366;" edge="1" parent="WIyWlLk6GJQsqaUBKTNV-1" source="ByL_Ba1hzFAfyO3tFBdU-2" target="gMZlVJIhhhXlPBFiC0Z1-30">
          <mxGeometry relative="1" as="geometry" />
        </mxCell>
        <mxCell id="ByL_Ba1hzFAfyO3tFBdU-2" value="&lt;font style=&quot;&quot;&gt;&lt;b style=&quot;&quot;&gt;&lt;font style=&quot;font-size: 18px;&quot;&gt;Earthquake Modules&lt;/font&gt;&lt;/b&gt;&lt;br&gt;&lt;i style=&quot;&quot;&gt;&lt;font style=&quot;&quot; color=&quot;#787878&quot;&gt;&lt;span style=&quot;font-size: 14px;&quot;&gt;.&lt;/span&gt;&lt;font style=&quot;font-size: 12px;&quot;&gt;earthquake&lt;/font&gt;&lt;/font&gt;&lt;/i&gt;&lt;br&gt;&lt;/font&gt;" style="rounded=0;whiteSpace=wrap;html=1;fillColor=#8da15e;strokeColor=none;" parent="WIyWlLk6GJQsqaUBKTNV-1" vertex="1">
          <mxGeometry x="278" y="197" width="120" height="70" as="geometry" />
        </mxCell>
        <mxCell id="gMZlVJIhhhXlPBFiC0Z1-12" style="edgeStyle=orthogonalEdgeStyle;rounded=0;orthogonalLoop=1;jettySize=auto;html=1;fillColor=#dae8fc;strokeColor=#98B9B7;" edge="1" parent="WIyWlLk6GJQsqaUBKTNV-1" source="ByL_Ba1hzFAfyO3tFBdU-3" target="ByL_Ba1hzFAfyO3tFBdU-14">
          <mxGeometry relative="1" as="geometry">
            <Array as="points">
              <mxPoint x="544" y="620" />
              <mxPoint x="512" y="620" />
            </Array>
          </mxGeometry>
        </mxCell>
        <mxCell id="gMZlVJIhhhXlPBFiC0Z1-13" style="edgeStyle=orthogonalEdgeStyle;rounded=0;orthogonalLoop=1;jettySize=auto;html=1;fillColor=#dae8fc;strokeColor=#98B9B7;exitX=1;exitY=0.5;exitDx=0;exitDy=0;entryX=0;entryY=0.5;entryDx=0;entryDy=0;" edge="1" parent="WIyWlLk6GJQsqaUBKTNV-1" source="ByL_Ba1hzFAfyO3tFBdU-3" target="ByL_Ba1hzFAfyO3tFBdU-13">
          <mxGeometry relative="1" as="geometry">
            <Array as="points">
              <mxPoint x="678" y="529" />
              <mxPoint x="678" y="507" />
            </Array>
          </mxGeometry>
        </mxCell>
        <mxCell id="gMZlVJIhhhXlPBFiC0Z1-14" style="edgeStyle=orthogonalEdgeStyle;rounded=0;orthogonalLoop=1;jettySize=auto;html=1;entryX=0;entryY=0.75;entryDx=0;entryDy=0;fillColor=#dae8fc;strokeColor=#98B9B7;" edge="1" parent="WIyWlLk6GJQsqaUBKTNV-1" source="ByL_Ba1hzFAfyO3tFBdU-3" target="ByL_Ba1hzFAfyO3tFBdU-16">
          <mxGeometry relative="1" as="geometry">
            <mxPoint x="583" y="357.5695037841797" as="targetPoint" />
            <Array as="points">
              <mxPoint x="583" y="392" />
            </Array>
          </mxGeometry>
        </mxCell>
        <mxCell id="ByL_Ba1hzFAfyO3tFBdU-3" value="&lt;font style=&quot;&quot;&gt;&lt;b style=&quot;&quot;&gt;&lt;font style=&quot;font-size: 18px;&quot;&gt;River Modules&lt;/font&gt;&lt;/b&gt;&lt;br&gt;&lt;i style=&quot;&quot;&gt;&lt;font style=&quot;&quot; color=&quot;#787878&quot;&gt;&lt;span style=&quot;font-size: 14px;&quot;&gt;.&lt;/span&gt;&lt;font style=&quot;font-size: 12px;&quot;&gt;river&lt;/font&gt;&lt;/font&gt;&lt;/i&gt;&lt;br&gt;&lt;/font&gt;" style="rounded=0;whiteSpace=wrap;html=1;fillColor=#7bbca3;strokeColor=none;" parent="WIyWlLk6GJQsqaUBKTNV-1" vertex="1">
          <mxGeometry x="513" y="504" width="140" height="50" as="geometry" />
        </mxCell>
        <mxCell id="gMZlVJIhhhXlPBFiC0Z1-7" style="edgeStyle=orthogonalEdgeStyle;rounded=0;orthogonalLoop=1;jettySize=auto;html=1;entryX=0.5;entryY=1;entryDx=0;entryDy=0;strokeColor=#d5d09a;" edge="1" parent="WIyWlLk6GJQsqaUBKTNV-1" target="ByL_Ba1hzFAfyO3tFBdU-10">
          <mxGeometry relative="1" as="geometry">
            <mxPoint x="263" y="720" as="sourcePoint" />
            <mxPoint x="129" y="699" as="targetPoint" />
            <Array as="points">
              <mxPoint x="263" y="720" />
              <mxPoint x="143" y="720" />
            </Array>
          </mxGeometry>
        </mxCell>
        <mxCell id="gMZlVJIhhhXlPBFiC0Z1-8" style="edgeStyle=orthogonalEdgeStyle;rounded=0;orthogonalLoop=1;jettySize=auto;html=1;strokeColor=#d5d09a;" edge="1" parent="WIyWlLk6GJQsqaUBKTNV-1" source="ByL_Ba1hzFAfyO3tFBdU-4" target="ByL_Ba1hzFAfyO3tFBdU-11">
          <mxGeometry relative="1" as="geometry">
            <Array as="points">
              <mxPoint x="78" y="732" />
            </Array>
          </mxGeometry>
        </mxCell>
        <mxCell id="gMZlVJIhhhXlPBFiC0Z1-9" style="edgeStyle=orthogonalEdgeStyle;rounded=0;orthogonalLoop=1;jettySize=auto;html=1;strokeColor=#d5d09a;" edge="1" parent="WIyWlLk6GJQsqaUBKTNV-1" source="ByL_Ba1hzFAfyO3tFBdU-4" target="ByL_Ba1hzFAfyO3tFBdU-12">
          <mxGeometry relative="1" as="geometry">
            <Array as="points">
              <mxPoint x="314" y="811" />
              <mxPoint x="651" y="811" />
            </Array>
          </mxGeometry>
        </mxCell>
        <mxCell id="gMZlVJIhhhXlPBFiC0Z1-10" style="edgeStyle=orthogonalEdgeStyle;rounded=0;orthogonalLoop=1;jettySize=auto;html=1;entryX=1;entryY=0.75;entryDx=0;entryDy=0;strokeColor=#d5d09a;" edge="1" parent="WIyWlLk6GJQsqaUBKTNV-1" source="ByL_Ba1hzFAfyO3tFBdU-4" target="ByL_Ba1hzFAfyO3tFBdU-9">
          <mxGeometry relative="1" as="geometry">
            <Array as="points">
              <mxPoint x="292" y="908" />
            </Array>
          </mxGeometry>
        </mxCell>
        <mxCell id="gMZlVJIhhhXlPBFiC0Z1-11" style="edgeStyle=orthogonalEdgeStyle;rounded=0;orthogonalLoop=1;jettySize=auto;html=1;entryX=0.5;entryY=0;entryDx=0;entryDy=0;strokeColor=#d5d09a;" edge="1" parent="WIyWlLk6GJQsqaUBKTNV-1" source="ByL_Ba1hzFAfyO3tFBdU-4" target="ByL_Ba1hzFAfyO3tFBdU-7">
          <mxGeometry relative="1" as="geometry">
            <Array as="points">
              <mxPoint x="466" y="747" />
            </Array>
          </mxGeometry>
        </mxCell>
        <mxCell id="ByL_Ba1hzFAfyO3tFBdU-4" value="&lt;font style=&quot;&quot;&gt;&lt;b style=&quot;&quot;&gt;&lt;font style=&quot;font-size: 18px;&quot;&gt;Building Modules&lt;/font&gt;&lt;/b&gt;&lt;br&gt;&lt;i style=&quot;&quot;&gt;&lt;font style=&quot;&quot; color=&quot;#787878&quot;&gt;&lt;span style=&quot;font-size: 14px;&quot;&gt;.&lt;/span&gt;&lt;font style=&quot;font-size: 12px;&quot;&gt;building&lt;/font&gt;&lt;/font&gt;&lt;/i&gt;&lt;br&gt;&lt;/font&gt;" style="rounded=0;whiteSpace=wrap;html=1;fillColor=#eff782;strokeColor=none;" parent="WIyWlLk6GJQsqaUBKTNV-1" vertex="1">
          <mxGeometry x="264" y="702" width="100" height="70" as="geometry" />
        </mxCell>
        <mxCell id="ByL_Ba1hzFAfyO3tFBdU-6" value="&lt;font style=&quot;&quot;&gt;&lt;b style=&quot;&quot;&gt;&lt;font style=&quot;font-size: 18px;&quot;&gt;Third Party&lt;/font&gt;&lt;/b&gt;&lt;br&gt;&lt;font color=&quot;#787878&quot;&gt;&lt;span style=&quot;font-size: 14px;&quot;&gt;&lt;i&gt;non-callable module&lt;/i&gt;&lt;/span&gt;&lt;/font&gt;&lt;br&gt;&lt;/font&gt;" style="rounded=0;whiteSpace=wrap;html=1;fillColor=#dedede;fontColor=#333333;strokeColor=none;" parent="WIyWlLk6GJQsqaUBKTNV-1" vertex="1">
          <mxGeometry x="104" y="259" width="140" height="50" as="geometry" />
        </mxCell>
        <mxCell id="gMZlVJIhhhXlPBFiC0Z1-20" style="edgeStyle=orthogonalEdgeStyle;rounded=0;orthogonalLoop=1;jettySize=auto;html=1;entryX=0;entryY=0.5;entryDx=0;entryDy=0;exitX=0;exitY=0.5;exitDx=0;exitDy=0;dashed=1;dashPattern=12 12;strokeColor=#8f8f8f;" edge="1" parent="WIyWlLk6GJQsqaUBKTNV-1" source="ByL_Ba1hzFAfyO3tFBdU-9" target="ByL_Ba1hzFAfyO3tFBdU-10">
          <mxGeometry relative="1" as="geometry">
            <mxPoint x="59" y="1001" as="sourcePoint" />
            <mxPoint x="49" y="681" as="targetPoint" />
            <Array as="points">
              <mxPoint x="-42" y="895" />
              <mxPoint x="-42" y="589" />
            </Array>
          </mxGeometry>
        </mxCell>
        <mxCell id="gMZlVJIhhhXlPBFiC0Z1-22" style="edgeStyle=orthogonalEdgeStyle;rounded=0;orthogonalLoop=1;jettySize=auto;html=1;dashed=1;dashPattern=8 8;strokeColor=#8f8f8f;entryX=0;entryY=0.5;entryDx=0;entryDy=0;" edge="1" parent="WIyWlLk6GJQsqaUBKTNV-1" source="ByL_Ba1hzFAfyO3tFBdU-9" target="ByL_Ba1hzFAfyO3tFBdU-12">
          <mxGeometry relative="1" as="geometry">
            <mxPoint x="617" y="883" as="targetPoint" />
            <Array as="points">
              <mxPoint x="133" y="847" />
              <mxPoint x="572" y="847" />
              <mxPoint x="572" y="870" />
            </Array>
          </mxGeometry>
        </mxCell>
        <mxCell id="gMZlVJIhhhXlPBFiC0Z1-25" style="edgeStyle=orthogonalEdgeStyle;rounded=0;orthogonalLoop=1;jettySize=auto;html=1;entryX=0;entryY=0.75;entryDx=0;entryDy=0;strokeColor=#d5d09a;" edge="1" parent="WIyWlLk6GJQsqaUBKTNV-1" source="ByL_Ba1hzFAfyO3tFBdU-9" target="ByL_Ba1hzFAfyO3tFBdU-7">
          <mxGeometry relative="1" as="geometry">
            <Array as="points">
              <mxPoint x="133" y="948" />
            </Array>
          </mxGeometry>
        </mxCell>
        <mxCell id="ByL_Ba1hzFAfyO3tFBdU-9" value="&lt;font style=&quot;&quot;&gt;&lt;font style=&quot;&quot;&gt;&lt;span style=&quot;font-size: 15px;&quot;&gt;&lt;b&gt;building step-up&lt;br&gt;&lt;/b&gt;&lt;/span&gt;&lt;/font&gt;&lt;font color=&quot;#787878&quot;&gt;&lt;i&gt;non-callable module&lt;/i&gt;&lt;/font&gt;&lt;br&gt;&lt;/font&gt;" style="rounded=0;whiteSpace=wrap;html=1;strokeColor=none;fillColor=#f4f9ae;" parent="WIyWlLk6GJQsqaUBKTNV-1" vertex="1">
          <mxGeometry x="47" y="870" width="140" height="50" as="geometry" />
        </mxCell>
        <mxCell id="ByL_Ba1hzFAfyO3tFBdU-14" value="&lt;font style=&quot;&quot;&gt;&lt;span style=&quot;font-size: 15px;&quot;&gt;&lt;b&gt;River Buffer&lt;/b&gt;&lt;/span&gt;&lt;br&gt;&lt;font color=&quot;#787878&quot;&gt;&lt;i&gt;non-callable module&lt;/i&gt;&lt;/font&gt;&lt;br&gt;&lt;/font&gt;" style="rounded=0;whiteSpace=wrap;html=1;strokeColor=none;fillColor=#bbecd9;" parent="WIyWlLk6GJQsqaUBKTNV-1" vertex="1">
          <mxGeometry x="424" y="682" width="140" height="50" as="geometry" />
        </mxCell>
        <mxCell id="gMZlVJIhhhXlPBFiC0Z1-17" style="edgeStyle=orthogonalEdgeStyle;rounded=0;orthogonalLoop=1;jettySize=auto;html=1;dashed=1;dashPattern=8 8;strokeColor=#8f8f8f;" edge="1" parent="WIyWlLk6GJQsqaUBKTNV-1" source="ByL_Ba1hzFAfyO3tFBdU-16" target="ByL_Ba1hzFAfyO3tFBdU-14">
          <mxGeometry relative="1" as="geometry" />
        </mxCell>
        <mxCell id="gMZlVJIhhhXlPBFiC0Z1-15" style="edgeStyle=orthogonalEdgeStyle;rounded=0;orthogonalLoop=1;jettySize=auto;html=1;entryX=0;entryY=0.75;entryDx=0;entryDy=0;strokeColor=#98B9B7;" edge="1" parent="WIyWlLk6GJQsqaUBKTNV-1" source="3AiOaLsyCB3WxP0uIY4R-0" target="ByL_Ba1hzFAfyO3tFBdU-13">
          <mxGeometry relative="1" as="geometry">
            <Array as="points">
              <mxPoint x="741" y="654" />
              <mxPoint x="741" y="520" />
            </Array>
          </mxGeometry>
        </mxCell>
        <mxCell id="3AiOaLsyCB3WxP0uIY4R-0" value="&lt;font style=&quot;font-size: 15px;&quot;&gt;&lt;b&gt;.geotiff&amp;nbsp;&lt;br style=&quot;&quot;&gt;DEM data&lt;/b&gt;&lt;/font&gt;" style="ellipse;whiteSpace=wrap;html=1;fillColor=#baeeda;strokeColor=none;" parent="WIyWlLk6GJQsqaUBKTNV-1" vertex="1">
          <mxGeometry x="590" y="614" width="120" height="80" as="geometry" />
        </mxCell>
        <mxCell id="gMZlVJIhhhXlPBFiC0Z1-6" style="edgeStyle=orthogonalEdgeStyle;rounded=0;orthogonalLoop=1;jettySize=auto;html=1;entryX=0.188;entryY=0.027;entryDx=0;entryDy=0;entryPerimeter=0;" edge="1" parent="WIyWlLk6GJQsqaUBKTNV-1" source="ByL_Ba1hzFAfyO3tFBdU-0" target="ByL_Ba1hzFAfyO3tFBdU-3">
          <mxGeometry relative="1" as="geometry" />
        </mxCell>
        <mxCell id="gMZlVJIhhhXlPBFiC0Z1-18" style="edgeStyle=orthogonalEdgeStyle;rounded=0;orthogonalLoop=1;jettySize=auto;html=1;entryX=0.678;entryY=-0.022;entryDx=0;entryDy=0;entryPerimeter=0;dashed=1;dashPattern=8 8;strokeColor=#8f8f8f;" edge="1" parent="WIyWlLk6GJQsqaUBKTNV-1" source="ByL_Ba1hzFAfyO3tFBdU-14" target="ByL_Ba1hzFAfyO3tFBdU-7">
          <mxGeometry relative="1" as="geometry" />
        </mxCell>
        <mxCell id="gMZlVJIhhhXlPBFiC0Z1-34" value="" style="group" vertex="1" connectable="0" parent="WIyWlLk6GJQsqaUBKTNV-1">
          <mxGeometry x="509" y="203" width="140" height="100" as="geometry" />
        </mxCell>
        <mxCell id="gMZlVJIhhhXlPBFiC0Z1-30" value="&lt;font style=&quot;&quot;&gt;&lt;font style=&quot;&quot;&gt;&lt;span style=&quot;font-size: 15px;&quot;&gt;&lt;b&gt;Earthquake shake buffer&amp;nbsp;&lt;br&gt;&lt;/b&gt;&lt;/span&gt;&lt;i style=&quot;color: rgb(120, 120, 120); font-size: 12px;&quot;&gt;.earthquake_buffer&lt;/i&gt;&lt;/font&gt;&lt;br&gt;&lt;/font&gt;" style="rounded=0;whiteSpace=wrap;html=1;strokeColor=none;fillColor=#c7dc98;" vertex="1" parent="gMZlVJIhhhXlPBFiC0Z1-34">
          <mxGeometry width="140" height="58" as="geometry" />
        </mxCell>
        <mxCell id="gMZlVJIhhhXlPBFiC0Z1-32" value="Plot of buffers from a chosen epicentre point for a given region" style="text;html=1;strokeColor=none;fillColor=none;align=right;verticalAlign=middle;whiteSpace=wrap;rounded=0;" vertex="1" parent="gMZlVJIhhhXlPBFiC0Z1-34">
          <mxGeometry x="40" y="70" width="100" height="30" as="geometry" />
        </mxCell>
        <mxCell id="gMZlVJIhhhXlPBFiC0Z1-35" value="" style="group" vertex="1" connectable="0" parent="WIyWlLk6GJQsqaUBKTNV-1">
          <mxGeometry x="682" y="309" width="140" height="150" as="geometry" />
        </mxCell>
        <mxCell id="ByL_Ba1hzFAfyO3tFBdU-16" value="&lt;font style=&quot;&quot;&gt;&lt;span style=&quot;font-size: 15px;&quot;&gt;&lt;b&gt;River List&lt;/b&gt;&lt;/span&gt;&lt;br&gt;&lt;i style=&quot;&quot;&gt;&lt;font style=&quot;font-size: 12px;&quot; color=&quot;#787878&quot;&gt;&lt;span style=&quot;&quot;&gt;.river_list&lt;/span&gt;&lt;/font&gt;&lt;/i&gt;&lt;br&gt;&lt;/font&gt;" style="rounded=0;whiteSpace=wrap;html=1;strokeColor=none;fillColor=#bbecd9;" parent="gMZlVJIhhhXlPBFiC0Z1-35" vertex="1">
          <mxGeometry y="45" width="140" height="50" as="geometry" />
        </mxCell>
        <mxCell id="ByL_Ba1hzFAfyO3tFBdU-17" value="&lt;font style=&quot;&quot;&gt;&lt;span style=&quot;font-size: 15px;&quot;&gt;&lt;b&gt;River&lt;/b&gt;&lt;/span&gt;&lt;br&gt;&lt;font color=&quot;#787878&quot;&gt;&lt;i&gt;non-callable module&lt;/i&gt;&lt;/font&gt;&lt;br&gt;&lt;/font&gt;" style="rounded=0;whiteSpace=wrap;html=1;strokeColor=none;fillColor=#bbecd9;" parent="gMZlVJIhhhXlPBFiC0Z1-35" vertex="1">
          <mxGeometry y="100" width="140" height="50" as="geometry" />
        </mxCell>
        <mxCell id="gMZlVJIhhhXlPBFiC0Z1-23" value="Creates list of river, polygon of region and buffer polygon" style="text;html=1;strokeColor=none;fillColor=none;align=left;verticalAlign=middle;whiteSpace=wrap;rounded=0;" vertex="1" parent="gMZlVJIhhhXlPBFiC0Z1-35">
          <mxGeometry width="88" height="30" as="geometry" />
        </mxCell>
        <mxCell id="gMZlVJIhhhXlPBFiC0Z1-36" value="" style="group" vertex="1" connectable="0" parent="WIyWlLk6GJQsqaUBKTNV-1">
          <mxGeometry x="849" y="432" width="140" height="155.5" as="geometry" />
        </mxCell>
        <mxCell id="ByL_Ba1hzFAfyO3tFBdU-13" value="&lt;font style=&quot;&quot;&gt;&lt;font style=&quot;&quot;&gt;&lt;span style=&quot;font-size: 15px;&quot;&gt;&lt;b&gt;Elevation&lt;br&gt;&lt;/b&gt;&lt;/span&gt;&lt;font color=&quot;#787878&quot;&gt;&lt;span style=&quot;font-size: 12px;&quot;&gt;&lt;i&gt;.river_elevation&lt;/i&gt;&lt;/span&gt;&lt;/font&gt;&lt;/font&gt;&lt;br&gt;&lt;/font&gt;" style="rounded=0;whiteSpace=wrap;html=1;strokeColor=none;fillColor=#bbecd9;" parent="gMZlVJIhhhXlPBFiC0Z1-36" vertex="1">
          <mxGeometry y="50" width="140" height="50" as="geometry" />
        </mxCell>
        <mxCell id="ByL_Ba1hzFAfyO3tFBdU-18" value="&lt;font style=&quot;&quot;&gt;&lt;span style=&quot;font-size: 15px;&quot;&gt;&lt;b&gt;River Data&lt;/b&gt;&lt;/span&gt;&lt;br&gt;&lt;font color=&quot;#787878&quot;&gt;&lt;i&gt;non-callable module&lt;/i&gt;&lt;/font&gt;&lt;br&gt;&lt;/font&gt;" style="rounded=0;whiteSpace=wrap;html=1;strokeColor=none;fillColor=#bbecd9;" parent="gMZlVJIhhhXlPBFiC0Z1-36" vertex="1">
          <mxGeometry y="105.5" width="140" height="50" as="geometry" />
        </mxCell>
        <mxCell id="gMZlVJIhhhXlPBFiC0Z1-24" value="Creates river list contain: names, geometries, km locations and elevations" style="text;html=1;strokeColor=none;fillColor=none;align=right;verticalAlign=middle;whiteSpace=wrap;rounded=0;" vertex="1" parent="gMZlVJIhhhXlPBFiC0Z1-36">
          <mxGeometry x="12" width="128" height="30" as="geometry" />
        </mxCell>
        <mxCell id="gMZlVJIhhhXlPBFiC0Z1-37" value="" style="group" vertex="1" connectable="0" parent="WIyWlLk6GJQsqaUBKTNV-1">
          <mxGeometry x="617" y="845.5" width="140" height="99" as="geometry" />
        </mxCell>
        <mxCell id="ByL_Ba1hzFAfyO3tFBdU-12" value="&lt;font style=&quot;&quot;&gt;&lt;b style=&quot;&quot;&gt;&lt;font style=&quot;font-size: 15px;&quot;&gt;Building treemap&lt;/font&gt;&lt;/b&gt;&lt;br&gt;&lt;i style=&quot;&quot;&gt;&lt;font style=&quot;font-size: 12px;&quot; color=&quot;#787878&quot;&gt;&lt;span style=&quot;&quot;&gt;.building_treemap&lt;/span&gt;&lt;/font&gt;&lt;/i&gt;&lt;br&gt;&lt;/font&gt;" style="rounded=0;whiteSpace=wrap;html=1;strokeColor=none;fillColor=#f4f9ae;" parent="gMZlVJIhhhXlPBFiC0Z1-37" vertex="1">
          <mxGeometry width="140" height="50" as="geometry" />
        </mxCell>
        <mxCell id="gMZlVJIhhhXlPBFiC0Z1-27" value="Generates tree-map equivalent for pie chart plot for given region" style="text;html=1;strokeColor=none;fillColor=none;align=right;verticalAlign=middle;whiteSpace=wrap;rounded=0;" vertex="1" parent="gMZlVJIhhhXlPBFiC0Z1-37">
          <mxGeometry x="13" y="42" width="127" height="57" as="geometry" />
        </mxCell>
        <mxCell id="gMZlVJIhhhXlPBFiC0Z1-38" value="" style="group" vertex="1" connectable="0" parent="WIyWlLk6GJQsqaUBKTNV-1">
          <mxGeometry x="398" y="904" width="154" height="101" as="geometry" />
        </mxCell>
        <mxCell id="ByL_Ba1hzFAfyO3tFBdU-7" value="&lt;font style=&quot;&quot;&gt;&lt;b style=&quot;&quot;&gt;&lt;font style=&quot;font-size: 15px;&quot;&gt;Building river buffer&lt;/font&gt;&lt;/b&gt;&lt;br&gt;&lt;i style=&quot;&quot;&gt;&lt;font style=&quot;font-size: 12px;&quot; color=&quot;#787878&quot;&gt;&lt;span style=&quot;&quot;&gt;.&lt;/span&gt;&lt;font style=&quot;font-size: 12px;&quot;&gt;buffered_buildings&lt;/font&gt;&lt;/font&gt;&lt;/i&gt;&lt;br&gt;&lt;/font&gt;" style="rounded=0;whiteSpace=wrap;html=1;strokeColor=none;fillColor=#f4f9ae;" parent="gMZlVJIhhhXlPBFiC0Z1-38" vertex="1">
          <mxGeometry x="-9" y="7" width="154" height="50" as="geometry" />
        </mxCell>
        <mxCell id="gMZlVJIhhhXlPBFiC0Z1-26" value="Generates pie chart for region between chosen buffer distances" style="text;html=1;strokeColor=none;fillColor=none;align=left;verticalAlign=middle;whiteSpace=wrap;rounded=0;" vertex="1" parent="gMZlVJIhhhXlPBFiC0Z1-38">
          <mxGeometry x="-9" y="51" width="127" height="57" as="geometry" />
        </mxCell>
        <mxCell id="gMZlVJIhhhXlPBFiC0Z1-39" value="" style="group" vertex="1" connectable="0" parent="WIyWlLk6GJQsqaUBKTNV-1">
          <mxGeometry x="41" y="732" width="140" height="101" as="geometry" />
        </mxCell>
        <mxCell id="ByL_Ba1hzFAfyO3tFBdU-11" value="&lt;font style=&quot;&quot;&gt;&lt;b style=&quot;&quot;&gt;&lt;font style=&quot;font-size: 15px;&quot;&gt;Building plot&lt;/font&gt;&lt;/b&gt;&lt;br&gt;&lt;i style=&quot;&quot;&gt;&lt;font style=&quot;font-size: 12px;&quot; color=&quot;#787878&quot;&gt;&lt;span style=&quot;&quot;&gt;.building_plot&lt;/span&gt;&lt;/font&gt;&lt;/i&gt;&lt;br&gt;&lt;/font&gt;" style="rounded=0;whiteSpace=wrap;html=1;strokeColor=none;fillColor=#f4f9ae;" parent="gMZlVJIhhhXlPBFiC0Z1-39" vertex="1">
          <mxGeometry y="51" width="140" height="50" as="geometry" />
        </mxCell>
        <mxCell id="gMZlVJIhhhXlPBFiC0Z1-29" value="Plots the building polygons for the chosen region&amp;nbsp;" style="text;html=1;strokeColor=none;fillColor=none;align=right;verticalAlign=middle;whiteSpace=wrap;rounded=0;" vertex="1" parent="gMZlVJIhhhXlPBFiC0Z1-39">
          <mxGeometry x="42" width="98" height="57" as="geometry" />
        </mxCell>
        <mxCell id="gMZlVJIhhhXlPBFiC0Z1-40" value="" style="group" vertex="1" connectable="0" parent="WIyWlLk6GJQsqaUBKTNV-1">
          <mxGeometry x="73" y="513" width="140" height="101" as="geometry" />
        </mxCell>
        <mxCell id="ByL_Ba1hzFAfyO3tFBdU-10" value="&lt;font style=&quot;&quot;&gt;&lt;b style=&quot;&quot;&gt;&lt;font style=&quot;font-size: 15px;&quot;&gt;Building pie chart&lt;/font&gt;&lt;/b&gt;&lt;br&gt;&lt;i style=&quot;&quot;&gt;&lt;font style=&quot;font-size: 12px;&quot; color=&quot;#787878&quot;&gt;&lt;span style=&quot;&quot;&gt;.building_pieplot&lt;/span&gt;&lt;/font&gt;&lt;/i&gt;&lt;br&gt;&lt;/font&gt;" style="rounded=0;whiteSpace=wrap;html=1;strokeColor=none;fillColor=#f4f9ae;" parent="gMZlVJIhhhXlPBFiC0Z1-40" vertex="1">
          <mxGeometry y="51" width="140" height="50" as="geometry" />
        </mxCell>
        <mxCell id="gMZlVJIhhhXlPBFiC0Z1-28" value="Generates pie chart of building types for given region" style="text;html=1;strokeColor=none;fillColor=none;align=left;verticalAlign=middle;whiteSpace=wrap;rounded=0;" vertex="1" parent="gMZlVJIhhhXlPBFiC0Z1-40">
          <mxGeometry width="111" height="57" as="geometry" />
        </mxCell>
        <mxCell id="gMZlVJIhhhXlPBFiC0Z1-49" value="" style="group" vertex="1" connectable="0" parent="WIyWlLk6GJQsqaUBKTNV-1">
          <mxGeometry x="803" y="634" width="212" height="246" as="geometry" />
        </mxCell>
        <mxCell id="gMZlVJIhhhXlPBFiC0Z1-42" value="" style="ellipse;whiteSpace=wrap;html=1;fillColor=#e6e6e6;strokeColor=none;" vertex="1" parent="gMZlVJIhhhXlPBFiC0Z1-49">
          <mxGeometry y="213" width="29" height="21" as="geometry" />
        </mxCell>
        <mxCell id="gMZlVJIhhhXlPBFiC0Z1-43" value="" style="rounded=0;whiteSpace=wrap;html=1;fillColor=#d1d1d1;fontColor=#333333;strokeColor=none;" vertex="1" parent="gMZlVJIhhhXlPBFiC0Z1-49">
          <mxGeometry y="50" width="30" height="17" as="geometry" />
        </mxCell>
        <mxCell id="gMZlVJIhhhXlPBFiC0Z1-44" value="" style="rounded=0;whiteSpace=wrap;html=1;fillColor=#f4f9ae;fontColor=#333333;strokeColor=none;" vertex="1" parent="gMZlVJIhhhXlPBFiC0Z1-49">
          <mxGeometry y="81.5" width="30" height="17" as="geometry" />
        </mxCell>
        <mxCell id="gMZlVJIhhhXlPBFiC0Z1-45" value="" style="rounded=0;whiteSpace=wrap;html=1;fillColor=#bbecd9;fontColor=#333333;strokeColor=none;" vertex="1" parent="gMZlVJIhhhXlPBFiC0Z1-49">
          <mxGeometry y="115" width="30" height="17" as="geometry" />
        </mxCell>
        <mxCell id="gMZlVJIhhhXlPBFiC0Z1-46" value="" style="rounded=0;whiteSpace=wrap;html=1;fillColor=#c7dc98;fontColor=#333333;strokeColor=none;" vertex="1" parent="gMZlVJIhhhXlPBFiC0Z1-49">
          <mxGeometry y="148" width="30" height="17" as="geometry" />
        </mxCell>
        <mxCell id="gMZlVJIhhhXlPBFiC0Z1-48" value="" style="endArrow=none;dashed=1;html=1;rounded=0;strokeColor=#919191;" edge="1" parent="gMZlVJIhhhXlPBFiC0Z1-49">
          <mxGeometry width="50" height="50" relative="1" as="geometry">
            <mxPoint x="4" y="195" as="sourcePoint" />
            <mxPoint x="30" y="179" as="targetPoint" />
          </mxGeometry>
        </mxCell>
        <mxCell id="gMZlVJIhhhXlPBFiC0Z1-41" value="&lt;h1 style=&quot;&quot;&gt;Legend:&lt;/h1&gt;&lt;p style=&quot;font-size: 15px;&quot;&gt;&lt;span style=&quot;white-space: pre;&quot;&gt;&lt;span style=&quot;white-space: pre;&quot;&gt;&#x9;&lt;/span&gt;Main package code&#x9;&lt;/span&gt;&lt;/p&gt;&lt;p style=&quot;font-size: 15px;&quot;&gt;&lt;span style=&quot;white-space: pre;&quot;&gt;&#x9;&lt;/span&gt;Building subpackage&lt;/p&gt;&lt;p style=&quot;font-size: 15px;&quot;&gt;&lt;span style=&quot;white-space: pre;&quot;&gt;&#x9;&lt;/span&gt;River subpackage&lt;br&gt;&lt;/p&gt;&lt;p style=&quot;font-size: 15px;&quot;&gt;&lt;span style=&quot;white-space: pre;&quot;&gt;&#x9;&lt;/span&gt;Earthquake subpackage&lt;br&gt;&lt;/p&gt;&lt;p style=&quot;font-size: 15px;&quot;&gt;&lt;span style=&quot;white-space: pre;&quot;&gt;&#x9;&lt;/span&gt;Necessary Modules&amp;nbsp;&lt;br&gt;&lt;/p&gt;&lt;p style=&quot;font-size: 15px;&quot;&gt;&lt;span style=&quot;white-space: pre;&quot;&gt;&#x9;&lt;/span&gt;External datasources&lt;br&gt;&lt;/p&gt;&lt;p style=&quot;font-size: 15px;&quot;&gt;&lt;span style=&quot;white-space: pre;&quot;&gt;&#x9;&lt;/span&gt;&lt;br&gt;&lt;/p&gt;" style="text;html=1;strokeColor=none;fillColor=none;spacing=5;spacingTop=-20;whiteSpace=wrap;overflow=hidden;rounded=0;" vertex="1" parent="gMZlVJIhhhXlPBFiC0Z1-49">
          <mxGeometry y="0.5" width="212" height="246" as="geometry" />
        </mxCell>
      </root>
    </mxGraphModel>
  </diagram>
</mxfile>
